<mxfile host="app.diagrams.net" modified="2021-04-28T06:04:52.916Z" agent="5.0 (Windows NT 10.0; Win64; x64) AppleWebKit/537.36 (KHTML, like Gecko) Chrome/75.0.3770.100 Safari/537.36" etag="SMizQV-8yTdPe_dGYOp-" version="14.6.6" type="github">
  <diagram name="Page-1" id="c37626ed-c26b-45fb-9056-f9ebc6bb27b6">
    <mxGraphModel dx="850" dy="457" grid="1" gridSize="10" guides="1" tooltips="1" connect="1" arrows="1" fold="1" page="1" pageScale="1" pageWidth="1100" pageHeight="850" background="#ffffff" math="0" shadow="0">
      <root>
        <mxCell id="0" />
        <mxCell id="1" parent="0" />
        <mxCell id="1c7a67bf8fd3230f-80" value="华为云-云薪通生产环境" style="whiteSpace=wrap;html=1;rounded=0;shadow=0;comic=0;strokeWidth=1;fontFamily=Verdana;fontSize=14;fillColor=#f5f5f5;strokeColor=none;fontStyle=1;verticalAlign=top;" parent="1" vertex="1">
          <mxGeometry x="506" y="839" width="324" height="331" as="geometry" />
        </mxCell>
        <mxCell id="WGlP9E17ub3J6W4ToNkm-1" value="民生金融云-云薪通backup环境" style="whiteSpace=wrap;html=1;rounded=0;shadow=0;comic=0;strokeWidth=1;fontFamily=Verdana;fontSize=14;fillColor=#f5f5f5;strokeColor=none;fontStyle=1;verticalAlign=top;" vertex="1" parent="1">
          <mxGeometry x="940" y="839" width="384" height="341" as="geometry" />
        </mxCell>
        <mxCell id="WGlP9E17ub3J6W4ToNkm-2" value="" style="shape=mxgraph.cisco.servers.standard_host;html=1;pointerEvents=1;dashed=0;fillColor=#036897;strokeColor=#ffffff;strokeWidth=2;verticalLabelPosition=bottom;verticalAlign=top;align=center;outlineConnect=0;" vertex="1" parent="1">
          <mxGeometry x="570" y="930" width="43" height="62" as="geometry" />
        </mxCell>
        <mxCell id="WGlP9E17ub3J6W4ToNkm-3" value="" style="shape=mxgraph.cisco.servers.standard_host;html=1;pointerEvents=1;dashed=0;fillColor=#036897;strokeColor=#ffffff;strokeWidth=2;verticalLabelPosition=bottom;verticalAlign=top;align=center;outlineConnect=0;" vertex="1" parent="1">
          <mxGeometry x="620" y="930" width="43" height="62" as="geometry" />
        </mxCell>
        <mxCell id="WGlP9E17ub3J6W4ToNkm-4" value="" style="shape=mxgraph.cisco.servers.standard_host;html=1;pointerEvents=1;dashed=0;fillColor=#036897;strokeColor=#ffffff;strokeWidth=2;verticalLabelPosition=bottom;verticalAlign=top;align=center;outlineConnect=0;" vertex="1" parent="1">
          <mxGeometry x="670" y="930" width="43" height="62" as="geometry" />
        </mxCell>
        <mxCell id="WGlP9E17ub3J6W4ToNkm-5" value="" style="shape=mxgraph.cisco.servers.standard_host;html=1;pointerEvents=1;dashed=0;fillColor=#036897;strokeColor=#ffffff;strokeWidth=2;verticalLabelPosition=bottom;verticalAlign=top;align=center;outlineConnect=0;" vertex="1" parent="1">
          <mxGeometry x="720" y="930" width="43" height="62" as="geometry" />
        </mxCell>
        <mxCell id="WGlP9E17ub3J6W4ToNkm-6" value="" style="shape=mxgraph.cisco.storage.relational_database;html=1;pointerEvents=1;dashed=0;fillColor=#036897;strokeColor=#ffffff;strokeWidth=2;verticalLabelPosition=bottom;verticalAlign=top;align=center;outlineConnect=0;" vertex="1" parent="1">
          <mxGeometry x="580" y="1040" width="66" height="53" as="geometry" />
        </mxCell>
        <mxCell id="WGlP9E17ub3J6W4ToNkm-7" value="" style="shape=mxgraph.cisco.storage.relational_database;html=1;pointerEvents=1;dashed=0;fillColor=#036897;strokeColor=#ffffff;strokeWidth=2;verticalLabelPosition=bottom;verticalAlign=top;align=center;outlineConnect=0;" vertex="1" parent="1">
          <mxGeometry x="670" y="1040" width="66" height="53" as="geometry" />
        </mxCell>
        <mxCell id="WGlP9E17ub3J6W4ToNkm-8" value="&lt;font style=&quot;font-size: 16px&quot;&gt;企业用户&lt;/font&gt;" style="shape=mxgraph.cisco.people.androgenous_person;html=1;pointerEvents=1;dashed=0;fillColor=#036897;strokeColor=#ffffff;strokeWidth=2;verticalLabelPosition=bottom;verticalAlign=top;align=center;outlineConnect=0;" vertex="1" parent="1">
          <mxGeometry x="594" y="520" width="69" height="82" as="geometry" />
        </mxCell>
        <mxCell id="WGlP9E17ub3J6W4ToNkm-9" value="&lt;font style=&quot;font-size: 16px&quot;&gt;C端用户&lt;/font&gt;" style="shape=mxgraph.cisco.people.standing_man;html=1;pointerEvents=1;dashed=0;fillColor=#036897;strokeColor=#ffffff;strokeWidth=2;verticalLabelPosition=bottom;verticalAlign=top;align=center;outlineConnect=0;" vertex="1" parent="1">
          <mxGeometry x="763" y="530" width="22" height="62" as="geometry" />
        </mxCell>
        <mxCell id="WGlP9E17ub3J6W4ToNkm-10" value="" style="ellipse;shape=cloud;whiteSpace=wrap;html=1;" vertex="1" parent="1">
          <mxGeometry x="540" y="680" width="240" height="80" as="geometry" />
        </mxCell>
        <mxCell id="WGlP9E17ub3J6W4ToNkm-15" value="云薪通开发环境" style="whiteSpace=wrap;html=1;rounded=0;shadow=0;comic=0;strokeWidth=1;fontFamily=Verdana;fontSize=14;fillColor=#f5f5f5;strokeColor=none;fontStyle=1;verticalAlign=top;" vertex="1" parent="1">
          <mxGeometry x="700" y="1210" width="324" height="200" as="geometry" />
        </mxCell>
        <mxCell id="WGlP9E17ub3J6W4ToNkm-16" value="" style="shape=mxgraph.cisco.servers.standard_host;html=1;pointerEvents=1;dashed=0;fillColor=#036897;strokeColor=#ffffff;strokeWidth=2;verticalLabelPosition=bottom;verticalAlign=top;align=center;outlineConnect=0;" vertex="1" parent="1">
          <mxGeometry x="764" y="1301" width="43" height="62" as="geometry" />
        </mxCell>
        <mxCell id="WGlP9E17ub3J6W4ToNkm-22" value="" style="shape=image;html=1;verticalAlign=top;verticalLabelPosition=bottom;labelBackgroundColor=#ffffff;imageAspect=0;aspect=fixed;image=https://cdn2.iconfinder.com/data/icons/font-awesome/1792/git-square-128.png" vertex="1" parent="1">
          <mxGeometry x="900" y="1311" width="69" height="69" as="geometry" />
        </mxCell>
      </root>
    </mxGraphModel>
  </diagram>
</mxfile>
